<?xml version="1.0" standalone="no"?>
<!DOCTYPE svg PUBLIC "-//W3C//DTD SVG 20010904//EN"
 "http://www.w3.org/TR/2001/REC-SVG-20010904/DTD/svg10.dtd">
<svg version="1.0" xmlns="http://www.w3.org/2000/svg"
 width="1000.000000pt" height="1000.000000pt" viewBox="0 0 1000.000000 1000.000000"
 preserveAspectRatio="xMidYMid meet">
<metadata>
Created by potrace 1.11, written by Peter Selinger 2001-2013
</metadata>
<g transform="translate(0.000000,1000.000000) scale(0.100000,-0.100000)"
fill="#000000" stroke="none">
<path d="M8890 8387 c-113 -40 -230 -81 -260 -90 -87 -27 -202 -89 -225 -120
-19 -26 -20 -46 -23 -280 -2 -139 -5 -254 -7 -256 -2 -2 -71 -4 -152 -5 -156
-3 -185 -9 -219 -47 -41 -48 -43 -68 -43 -357 0 -269 0 -281 22 -322 40 -79
56 -85 238 -88 l159 -4 1 -701 c0 -1315 1 -1327 26 -1367 44 -71 61 -74 438
-73 251 1 306 4 335 17 49 22 64 36 85 76 18 33 19 82 17 1043 l-1 1007 182 0
c198 1 230 8 269 61 32 43 36 90 35 373 -2 253 -3 273 -22 306 -40 67 -67 75
-270 77 -99 1 -183 2 -187 2 -4 1 -7 155 -6 344 1 230 -3 355 -10 383 -18 61
-49 85 -119 90 -52 4 -80 -4 -263 -69z"/>
<path d="M635 8130 c-49 -18 -69 -66 -80 -191 -3 -35 -8 -80 -10 -99 -2 -19
-6 -64 -10 -100 -3 -36 -8 -81 -10 -100 -2 -19 -7 -66 -10 -105 -4 -38 -8 -80
-10 -92 -2 -12 -6 -57 -10 -100 -4 -43 -8 -89 -10 -102 -3 -14 -7 -54 -10 -90
-3 -36 -8 -81 -11 -100 -2 -18 -7 -63 -9 -100 -3 -36 -7 -77 -10 -91 -2 -14
-7 -59 -10 -100 -3 -41 -8 -86 -10 -100 -2 -14 -7 -59 -10 -100 -4 -41 -8 -86
-10 -100 -2 -14 -6 -54 -10 -90 -3 -36 -8 -81 -10 -100 -2 -19 -7 -57 -9 -85
-7 -67 -14 -138 -21 -205 -3 -30 -8 -77 -10 -105 -3 -27 -7 -66 -10 -85 -2
-19 -7 -69 -10 -110 -3 -41 -8 -86 -10 -100 -3 -23 -16 -140 -20 -185 -7 -72
-17 -175 -20 -200 -2 -16 -7 -61 -10 -100 -3 -38 -8 -81 -10 -95 -2 -14 -7
-59 -11 -100 -3 -41 -8 -88 -10 -105 -4 -44 13 -90 41 -105 18 -10 104 -13
367 -12 189 0 357 1 375 1 18 1 43 11 58 24 26 22 30 41 50 227 5 53 10 95 20
170 4 33 14 126 20 180 12 117 17 164 20 178 1 9 6 49 10 87 3 39 8 84 10 100
3 17 7 53 10 80 5 49 21 191 30 270 3 22 7 63 10 90 3 28 7 66 10 85 3 19 7
62 10 95 3 33 8 71 10 85 5 32 18 150 19 173 0 9 4 17 8 17 4 0 8 -1 8 -3 0
-3 114 -398 231 -802 39 -132 77 -262 85 -290 8 -27 16 -57 18 -65 2 -8 45
-157 95 -330 84 -292 93 -317 123 -342 l32 -28 329 0 330 0 32 34 c18 19 37
54 44 78 23 86 40 147 116 408 42 146 92 317 110 380 62 214 163 564 200 690
21 69 47 160 58 203 19 70 33 97 34 65 0 -16 13 -134 18 -168 2 -14 7 -54 10
-90 4 -36 9 -78 11 -95 2 -16 6 -58 9 -92 3 -34 7 -70 9 -80 4 -18 13 -102 21
-182 3 -24 7 -60 9 -80 3 -20 8 -56 10 -81 3 -25 8 -72 12 -105 3 -33 8 -73 9
-90 1 -16 5 -50 8 -75 4 -25 9 -67 12 -95 3 -27 8 -68 10 -90 3 -22 7 -60 10
-85 2 -25 7 -65 10 -90 3 -25 7 -65 10 -90 23 -224 24 -231 62 -256 24 -15 61
-17 377 -16 193 0 364 1 379 1 16 1 39 12 54 27 24 24 25 28 19 107 -4 45 -9
96 -11 112 -2 17 -6 56 -9 88 -4 31 -8 83 -12 115 -3 31 -7 71 -9 87 -2 17 -7
66 -10 110 -4 44 -8 91 -10 105 -2 14 -7 57 -10 95 -4 39 -8 81 -10 95 -2 14
-7 59 -10 100 -3 41 -8 82 -10 90 -2 8 -7 49 -10 90 -4 41 -8 86 -10 100 -2
14 -7 59 -10 100 -8 93 -14 148 -20 180 -2 14 -7 59 -10 100 -4 41 -8 86 -10
100 -2 14 -6 57 -10 95 -3 39 -8 81 -10 95 -2 14 -6 57 -10 95 -4 39 -8 84
-10 100 -2 17 -7 62 -10 100 -4 39 -8 81 -10 95 -2 14 -6 57 -10 95 -3 39 -8
84 -10 100 -2 17 -7 60 -10 96 -3 36 -7 76 -10 90 -2 13 -6 59 -10 101 -3 43
-8 90 -10 105 -2 16 -6 57 -10 93 -3 36 -8 81 -10 100 -2 19 -7 69 -11 110 -8
98 -10 108 -29 136 -33 51 -39 52 -490 51 -231 0 -432 -4 -447 -9 -52 -18 -64
-44 -132 -273 -19 -66 -67 -226 -106 -355 -39 -129 -73 -242 -75 -250 -2 -8
-27 -89 -55 -180 -28 -91 -53 -172 -55 -180 -2 -8 -38 -127 -80 -265 -42 -137
-78 -257 -80 -265 -2 -8 -13 -44 -24 -80 -10 -36 -35 -118 -54 -182 -19 -64
-39 -124 -45 -134 -8 -14 -10 -12 -16 12 -4 16 -21 74 -37 129 -17 55 -43 143
-59 195 -16 52 -40 133 -54 180 -14 47 -127 425 -251 840 -125 415 -233 765
-241 777 -7 12 -31 27 -51 32 -44 11 -859 12 -888 1z"/>
<path d="M6007 7684 c-1 -1 -42 -4 -92 -8 -49 -3 -101 -8 -115 -11 -13 -2 -42
-7 -64 -11 -22 -3 -43 -7 -47 -9 -3 -2 -20 -7 -38 -10 -120 -21 -369 -136
-505 -233 -339 -243 -578 -649 -623 -1061 -9 -81 -9 -286 -1 -356 14 -108 18
-140 24 -157 3 -10 7 -29 10 -43 8 -43 52 -176 81 -245 145 -342 443 -643 778
-788 85 -37 244 -87 305 -97 25 -4 54 -9 65 -11 85 -17 278 -23 376 -11 117
14 312 88 426 163 55 36 171 129 184 148 12 16 27 -4 34 -44 4 -22 11 -42 16
-46 5 -3 9 -14 9 -25 0 -54 67 -136 119 -145 20 -4 156 -7 303 -7 l266 0 47
28 c90 52 82 -76 82 1456 l1 1350 -22 42 c-25 49 -70 82 -123 90 -21 3 -136 5
-257 4 l-218 -2 -34 -39 c-19 -22 -32 -41 -30 -43 2 -3 -6 -28 -18 -56 -13
-29 -36 -94 -51 -144 -16 -51 -32 -93 -37 -93 -4 0 -8 4 -8 8 0 18 -143 163
-207 210 -92 67 -234 136 -323 157 -8 2 -36 8 -61 14 -53 12 -244 31 -252 25z
m201 -814 c207 -56 369 -189 468 -382 87 -172 103 -390 43 -572 -117 -352
-488 -555 -863 -472 -105 24 -227 98 -314 190 -61 65 -152 227 -152 270 0 9
-4 25 -9 35 -22 40 -33 234 -19 335 44 321 286 583 568 613 30 3 56 7 58 8 9
8 159 -9 220 -25z"/>
<path d="M306 4157 l-23 -23 2 -1254 c1 -690 2 -1261 3 -1268 4 -32 57 -38
339 -37 153 1 288 5 300 9 12 4 25 17 30 29 4 12 7 202 8 422 l0 400 141 3
141 3 33 -63 c18 -35 48 -90 65 -123 88 -164 117 -218 165 -309 29 -55 61
-115 71 -134 11 -18 40 -74 65 -124 37 -72 53 -92 78 -102 22 -9 116 -12 341
-11 362 3 330 1 349 21 21 21 20 62 -2 99 -10 17 -49 89 -87 160 -37 72 -83
159 -103 195 -65 121 -109 205 -162 305 -29 55 -70 132 -91 171 l-38 71 51 33
c118 77 262 245 313 365 139 331 67 688 -189 938 -79 77 -190 149 -296 190
-140 55 -162 56 -848 57 l-633 0 -23 -23z m1036 -521 c95 -7 150 -29 210 -85
168 -154 125 -431 -82 -525 -41 -18 -65 -20 -275 -21 l-230 0 -1 315 c0 173 1
317 2 320 3 7 273 4 376 -4z"/>
<path d="M3528 3835 c-2 -2 -28 -6 -58 -9 -48 -6 -75 -11 -150 -30 -229 -59
-486 -242 -625 -447 -76 -111 -150 -274 -170 -375 -42 -212 -43 -379 -1 -569
23 -106 90 -258 165 -370 42 -63 178 -211 241 -260 91 -72 227 -143 351 -184
82 -27 92 -29 209 -45 140 -18 231 -12 380 28 67 18 208 99 270 155 65 59 65
58 90 -20 27 -84 50 -115 93 -127 18 -5 125 -8 238 -7 225 1 238 4 276 62 17
25 18 90 18 1058 -1 973 -2 1031 -18 1057 -38 56 -52 59 -258 60 -131 0 -193
-3 -203 -11 -20 -17 -59 -104 -86 -193 -13 -43 -27 -78 -32 -78 -4 0 -8 4 -8
9 0 19 -141 150 -200 186 -55 33 -220 101 -220 90 0 -2 -12 0 -27 6 -24 10
-267 22 -275 14z m204 -599 c101 -16 237 -92 304 -169 158 -183 190 -427 84
-637 -109 -215 -380 -337 -614 -275 -237 63 -380 267 -378 540 2 269 175 500
404 540 18 4 34 7 35 9 4 4 127 -1 165 -8z"/>
<path d="M6428 3835 c-2 -2 -25 -6 -53 -9 -200 -26 -394 -134 -502 -278 l-20
-27 -14 62 c-20 98 -46 160 -79 190 -33 30 -25 29 -241 29 -160 0 -187 -6
-223 -55 -21 -28 -21 -31 -23 -1049 -1 -1025 -1 -1049 32 -1084 32 -34 59 -37
307 -37 225 0 250 2 280 20 58 33 58 34 59 696 0 569 1 605 20 652 40 105 141
205 249 246 184 71 415 -44 488 -243 21 -56 21 -72 22 -672 0 -402 4 -624 11
-644 17 -50 44 -55 313 -55 276 0 298 4 322 61 20 49 20 1293 0 1417 -38 226
-125 412 -256 546 -113 115 -257 193 -415 224 -31 6 -272 15 -277 10z"/>
<path d="M8715 3825 c-481 -73 -861 -435 -952 -905 -18 -96 -21 -140 -18 -255
3 -139 5 -154 29 -256 92 -399 420 -736 812 -834 291 -73 552 -45 819 88 144
72 231 140 238 187 6 33 -5 52 -133 245 -146 219 -169 230 -309 146 -120 -73
-208 -101 -316 -101 -138 0 -251 46 -346 142 -214 213 -207 612 14 830 90 88
230 140 357 132 106 -6 194 -36 311 -106 87 -51 128 -54 177 -13 32 27 207
314 221 361 18 66 -22 125 -126 185 -137 79 -246 121 -393 149 -82 17 -294 19
-385 5z"/>
</g>
</svg>
